# xmcd
#
# Track frame offsets:
#	150
#	19057
#	40050
#	60024
#	79775
#	100903
#	125766
#	148366
#	167580
#	183959
#
# Disc length: 2770 seconds
#
# Revision: 2
# Processed by: cddbd v1.5.2PL0 Copyright (c) Steve Scherf et al.
# Submitted via: EZCDDA 4.3.2
#
DISCID=7d0ad00a
DTITLE=Dark Tranquility - Fiction
DYEAR=1900
DGENRE=
TTITLE0=Nothing To No One
TTITLE1=The Lesser Faith
TTITLE2=Terminus (Where Death Is Most
TTITLE3=Blind At Heart
TTITLE4=Icipher
TTITLE5=Inside The Particle Storm
TTITLE6=Empty Me
TTITLE7=Misery's Crown
TTITLE8=Focus Shift
TTITLE9=The Mundane And The Magic
EXTD=
EXTT0=
EXTT1=
EXTT2=
EXTT3=
EXTT4=
EXTT5=
EXTT6=
EXTT7=
EXTT8=
EXTT9=
PLAYORDER=
